<svg width="180" height="130" viewBox="0 0 180 130" fill="none" xmlns="http://www.w3.org/2000/svg">
    <path fill-rule="evenodd" clip-rule="evenodd" d="M64.6006 22.3721V129.65H37.4665V22.3721H0V0H102.157V22.3721H64.6006ZM131.504 95.3904C141.14 85.6492 148.472 73.6038 153.814 58.835H108.984C114.116 72.8706 121.553 85.2303 131.504 95.3904ZM178.952 51.1887V58.835H162.822C156.642 76.0129 148.367 89.839 137.474 100.837C148.891 110.473 163.031 117.596 180 121.576C178.114 123.357 175.601 126.918 174.448 129.118C156.956 124.614 142.711 117.072 131.19 106.703C119.668 116.548 105.527 123.776 88.6638 129.222C87.9306 127.337 85.4168 123.566 83.7409 121.786C100.395 116.967 114.116 110.264 125.324 101.046C114.535 89.6295 106.365 75.4891 100.395 58.835H84.9978V51.1887H127.628V33.4871H135.484V51.1887H178.952Z" fill="#27A2F8"/>
</svg>
